<?xml version="1.0" encoding="UTF-8" standalone="no"?>
<!-- Created with Inkscape (http://www.inkscape.org/) -->

<svg
   width="165mm"
   height="120mm"
   viewBox="0 0 165 120"
   version="1.1"
   id="svg8"
   inkscape:version="1.2.2 (b0a8486541, 2022-12-01)"
   sodipodi:docname="bitonic.svg"
   xmlns:inkscape="http://www.inkscape.org/namespaces/inkscape"
   xmlns:sodipodi="http://sodipodi.sourceforge.net/DTD/sodipodi-0.dtd"
   xmlns="http://www.w3.org/2000/svg"
   xmlns:svg="http://www.w3.org/2000/svg"
   xmlns:rdf="http://www.w3.org/1999/02/22-rdf-syntax-ns#"
   xmlns:cc="http://creativecommons.org/ns#"
   xmlns:dc="http://purl.org/dc/elements/1.1/">
  <defs
     id="defs2">
    <rect
       x="108.63252"
       y="322.92929"
       width="31.84724"
       height="32.201008"
       id="rect5440" />
    <rect
       x="91.189873"
       y="268.85907"
       width="24.723938"
       height="34.192554"
       id="rect5290" />
    <rect
       x="186.44974"
       y="160.21458"
       width="32.776234"
       height="41.579281"
       id="rect5140" />
    <rect
       x="190.76553"
       y="172.40247"
       width="31.312674"
       height="30.041092"
       id="rect4990" />
    <rect
       x="169.26437"
       y="113.41819"
       width="38.334774"
       height="37.766258"
       id="rect4790" />
    <rect
       x="193.05557"
       y="152.79816"
       width="28.271023"
       height="44.800739"
       id="rect4640" />
    <rect
       x="163.6758"
       y="114.94126"
       width="21.976736"
       height="31.14209"
       id="rect4490" />
    <rect
       x="136.30663"
       y="58.38343"
       width="22.15777"
       height="33.934937"
       id="rect4340" />
    <rect
       x="109.5802"
       y="6.44522"
       width="47.796124"
       height="37.738392"
       id="rect4190" />
    <marker
       style="overflow:visible"
       id="TriangleStart"
       refX="0"
       refY="0"
       orient="auto-start-reverse"
       inkscape:stockid="TriangleStart"
       markerWidth="5.3244081"
       markerHeight="6.155385"
       viewBox="0 0 5.3244081 6.1553851"
       inkscape:isstock="true"
       inkscape:collect="always"
       preserveAspectRatio="xMidYMid">
      <path
         transform="scale(0.5)"
         style="fill:context-stroke;fill-rule:evenodd;stroke:context-stroke;stroke-width:1pt"
         d="M 5.77,0 -2.88,5 V -5 Z"
         id="path135" />
    </marker>
    <marker
       style="overflow:visible"
       id="marker9466"
       refX="0"
       refY="0"
       orient="auto"
       inkscape:stockid="Dot"
       markerWidth="5.4000001"
       markerHeight="5.4000001"
       viewBox="0 0 5.4 5.4"
       inkscape:isstock="true"
       inkscape:collect="always"
       preserveAspectRatio="xMidYMid">
      <path
         transform="scale(0.45)"
         style="fill:context-fill;fill-rule:evenodd;stroke:context-stroke;stroke-width:2"
         d="M 5,0 C 5,2.76 2.76,5 0,5 -2.76,5 -5,2.76 -5,0 c 0,-2.76 2.3,-5 5,-5 2.76,0 5,2.24 5,5 z"
         id="path9464"
         sodipodi:nodetypes="sssss" />
    </marker>
    <marker
       style="overflow:visible"
       id="marker9466-2"
       refX="0"
       refY="0"
       orient="auto"
       inkscape:stockid="Dot"
       markerWidth="5.4000001"
       markerHeight="5.4000001"
       viewBox="0 0 5.4 5.4"
       inkscape:isstock="true"
       inkscape:collect="always"
       preserveAspectRatio="xMidYMid">
      <path
         transform="scale(0.45)"
         style="fill:context-fill;fill-rule:evenodd;stroke:context-stroke;stroke-width:2"
         d="M 5,0 C 5,2.76 2.76,5 0,5 -2.76,5 -5,2.76 -5,0 c 0,-2.76 2.3,-5 5,-5 2.76,0 5,2.24 5,5 z"
         id="path9464-9"
         sodipodi:nodetypes="sssss" />
    </marker>
    <marker
       style="overflow:visible"
       id="TriangleStart-1"
       refX="0"
       refY="0"
       orient="auto-start-reverse"
       inkscape:stockid="TriangleStart"
       markerWidth="5.3244081"
       markerHeight="6.155385"
       viewBox="0 0 5.3244081 6.1553851"
       inkscape:isstock="true"
       inkscape:collect="always"
       preserveAspectRatio="xMidYMid">
      <path
         transform="scale(0.5)"
         style="fill:context-stroke;fill-rule:evenodd;stroke:context-stroke;stroke-width:1pt"
         d="M 5.77,0 -2.88,5 V -5 Z"
         id="path135-2" />
    </marker>
    <marker
       style="overflow:visible"
       id="marker9466-2-0"
       refX="0"
       refY="0"
       orient="auto"
       inkscape:stockid="Dot"
       markerWidth="5.4000001"
       markerHeight="5.4000001"
       viewBox="0 0 5.4 5.4"
       inkscape:isstock="true"
       inkscape:collect="always"
       preserveAspectRatio="xMidYMid">
      <path
         transform="scale(0.45)"
         style="fill:context-fill;fill-rule:evenodd;stroke:context-stroke;stroke-width:2"
         d="M 5,0 C 5,2.76 2.76,5 0,5 -2.76,5 -5,2.76 -5,0 c 0,-2.76 2.3,-5 5,-5 2.76,0 5,2.24 5,5 z"
         id="path9464-9-9"
         sodipodi:nodetypes="sssss" />
    </marker>
    <marker
       style="overflow:visible"
       id="TriangleStart-1-3"
       refX="0"
       refY="0"
       orient="auto-start-reverse"
       inkscape:stockid="TriangleStart"
       markerWidth="5.3244081"
       markerHeight="6.155385"
       viewBox="0 0 5.3244081 6.1553851"
       inkscape:isstock="true"
       inkscape:collect="always"
       preserveAspectRatio="xMidYMid">
      <path
         transform="scale(0.5)"
         style="fill:context-stroke;fill-rule:evenodd;stroke:context-stroke;stroke-width:1pt"
         d="M 5.77,0 -2.88,5 V -5 Z"
         id="path135-2-6" />
    </marker>
    <marker
       style="overflow:visible"
       id="marker9466-2-0-6"
       refX="0"
       refY="0"
       orient="auto"
       inkscape:stockid="Dot"
       markerWidth="5.4000001"
       markerHeight="5.4000001"
       viewBox="0 0 5.4 5.4"
       inkscape:isstock="true"
       inkscape:collect="always"
       preserveAspectRatio="xMidYMid">
      <path
         transform="scale(0.45)"
         style="fill:context-fill;fill-rule:evenodd;stroke:context-stroke;stroke-width:2"
         d="M 5,0 C 5,2.76 2.76,5 0,5 -2.76,5 -5,2.76 -5,0 c 0,-2.76 2.3,-5 5,-5 2.76,0 5,2.24 5,5 z"
         id="path9464-9-9-2"
         sodipodi:nodetypes="sssss" />
    </marker>
    <marker
       style="overflow:visible"
       id="TriangleStart-1-3-6"
       refX="0"
       refY="0"
       orient="auto-start-reverse"
       inkscape:stockid="TriangleStart"
       markerWidth="5.3244081"
       markerHeight="6.155385"
       viewBox="0 0 5.3244081 6.1553851"
       inkscape:isstock="true"
       inkscape:collect="always"
       preserveAspectRatio="xMidYMid">
      <path
         transform="scale(0.5)"
         style="fill:context-stroke;fill-rule:evenodd;stroke:context-stroke;stroke-width:1pt"
         d="M 5.77,0 -2.88,5 V -5 Z"
         id="path135-2-6-1" />
    </marker>
    <marker
       style="overflow:visible"
       id="marker9466-2-0-7"
       refX="0"
       refY="0"
       orient="auto"
       inkscape:stockid="Dot"
       markerWidth="5.4000001"
       markerHeight="5.4000001"
       viewBox="0 0 5.4 5.4"
       inkscape:isstock="true"
       inkscape:collect="always"
       preserveAspectRatio="xMidYMid">
      <path
         transform="scale(0.45)"
         style="fill:context-fill;fill-rule:evenodd;stroke:context-stroke;stroke-width:2"
         d="M 5,0 C 5,2.76 2.76,5 0,5 -2.76,5 -5,2.76 -5,0 c 0,-2.76 2.3,-5 5,-5 2.76,0 5,2.24 5,5 z"
         id="path9464-9-9-9"
         sodipodi:nodetypes="sssss" />
    </marker>
    <marker
       style="overflow:visible"
       id="TriangleStart-1-3-2"
       refX="0"
       refY="0"
       orient="auto-start-reverse"
       inkscape:stockid="TriangleStart"
       markerWidth="5.3244081"
       markerHeight="6.155385"
       viewBox="0 0 5.3244081 6.1553851"
       inkscape:isstock="true"
       inkscape:collect="always"
       preserveAspectRatio="xMidYMid">
      <path
         transform="scale(0.5)"
         style="fill:context-stroke;fill-rule:evenodd;stroke:context-stroke;stroke-width:1pt"
         d="M 5.77,0 -2.88,5 V -5 Z"
         id="path135-2-6-0" />
    </marker>
    <marker
       style="overflow:visible"
       id="marker9466-2-0-7-3"
       refX="0"
       refY="0"
       orient="auto"
       inkscape:stockid="Dot"
       markerWidth="5.4000001"
       markerHeight="5.4000001"
       viewBox="0 0 5.4 5.4"
       inkscape:isstock="true"
       inkscape:collect="always"
       preserveAspectRatio="xMidYMid">
      <path
         transform="scale(0.45)"
         style="fill:context-fill;fill-rule:evenodd;stroke:context-stroke;stroke-width:2"
         d="M 5,0 C 5,2.76 2.76,5 0,5 -2.76,5 -5,2.76 -5,0 c 0,-2.76 2.3,-5 5,-5 2.76,0 5,2.24 5,5 z"
         id="path9464-9-9-9-7"
         sodipodi:nodetypes="sssss" />
    </marker>
    <marker
       style="overflow:visible"
       id="TriangleStart-1-3-2-5"
       refX="0"
       refY="0"
       orient="auto-start-reverse"
       inkscape:stockid="TriangleStart"
       markerWidth="5.3244081"
       markerHeight="6.155385"
       viewBox="0 0 5.3244081 6.1553851"
       inkscape:isstock="true"
       inkscape:collect="always"
       preserveAspectRatio="xMidYMid">
      <path
         transform="scale(0.5)"
         style="fill:context-stroke;fill-rule:evenodd;stroke:context-stroke;stroke-width:1pt"
         d="M 5.77,0 -2.88,5 V -5 Z"
         id="path135-2-6-0-9" />
    </marker>
    <marker
       style="overflow:visible"
       id="marker9466-2-0-7-2"
       refX="0"
       refY="0"
       orient="auto"
       inkscape:stockid="Dot"
       markerWidth="5.4000001"
       markerHeight="5.4000001"
       viewBox="0 0 5.4 5.4"
       inkscape:isstock="true"
       inkscape:collect="always"
       preserveAspectRatio="xMidYMid">
      <path
         transform="scale(0.45)"
         style="fill:context-fill;fill-rule:evenodd;stroke:context-stroke;stroke-width:2"
         d="M 5,0 C 5,2.76 2.76,5 0,5 -2.76,5 -5,2.76 -5,0 c 0,-2.76 2.3,-5 5,-5 2.76,0 5,2.24 5,5 z"
         id="path9464-9-9-9-8"
         sodipodi:nodetypes="sssss" />
    </marker>
    <marker
       style="overflow:visible"
       id="TriangleStart-1-3-2-9"
       refX="0"
       refY="0"
       orient="auto-start-reverse"
       inkscape:stockid="TriangleStart"
       markerWidth="5.3244081"
       markerHeight="6.155385"
       viewBox="0 0 5.3244081 6.1553851"
       inkscape:isstock="true"
       inkscape:collect="always"
       preserveAspectRatio="xMidYMid">
      <path
         transform="scale(0.5)"
         style="fill:context-stroke;fill-rule:evenodd;stroke:context-stroke;stroke-width:1pt"
         d="M 5.77,0 -2.88,5 V -5 Z"
         id="path135-2-6-0-7" />
    </marker>
    <marker
       style="overflow:visible"
       id="marker9466-2-0-7-6"
       refX="0"
       refY="0"
       orient="auto"
       inkscape:stockid="Dot"
       markerWidth="5.4000001"
       markerHeight="5.4000001"
       viewBox="0 0 5.4 5.4"
       inkscape:isstock="true"
       inkscape:collect="always"
       preserveAspectRatio="xMidYMid">
      <path
         transform="scale(0.45)"
         style="fill:context-fill;fill-rule:evenodd;stroke:context-stroke;stroke-width:2"
         d="M 5,0 C 5,2.76 2.76,5 0,5 -2.76,5 -5,2.76 -5,0 c 0,-2.76 2.3,-5 5,-5 2.76,0 5,2.24 5,5 z"
         id="path9464-9-9-9-1"
         sodipodi:nodetypes="sssss" />
    </marker>
    <marker
       style="overflow:visible"
       id="TriangleStart-1-3-2-2"
       refX="0"
       refY="0"
       orient="auto-start-reverse"
       inkscape:stockid="TriangleStart"
       markerWidth="5.3244081"
       markerHeight="6.155385"
       viewBox="0 0 5.3244081 6.1553851"
       inkscape:isstock="true"
       inkscape:collect="always"
       preserveAspectRatio="xMidYMid">
      <path
         transform="scale(0.5)"
         style="fill:context-stroke;fill-rule:evenodd;stroke:context-stroke;stroke-width:1pt"
         d="M 5.77,0 -2.88,5 V -5 Z"
         id="path135-2-6-0-93" />
    </marker>
    <marker
       style="overflow:visible"
       id="marker9466-2-0-7-9"
       refX="0"
       refY="0"
       orient="auto"
       inkscape:stockid="Dot"
       markerWidth="5.4000001"
       markerHeight="5.4000001"
       viewBox="0 0 5.4 5.4"
       inkscape:isstock="true"
       inkscape:collect="always"
       preserveAspectRatio="xMidYMid">
      <path
         transform="scale(0.45)"
         style="fill:context-fill;fill-rule:evenodd;stroke:context-stroke;stroke-width:2"
         d="M 5,0 C 5,2.76 2.76,5 0,5 -2.76,5 -5,2.76 -5,0 c 0,-2.76 2.3,-5 5,-5 2.76,0 5,2.24 5,5 z"
         id="path9464-9-9-9-4"
         sodipodi:nodetypes="sssss" />
    </marker>
    <marker
       style="overflow:visible"
       id="TriangleStart-1-3-2-7"
       refX="0"
       refY="0"
       orient="auto-start-reverse"
       inkscape:stockid="TriangleStart"
       markerWidth="5.3244081"
       markerHeight="6.155385"
       viewBox="0 0 5.3244081 6.1553851"
       inkscape:isstock="true"
       inkscape:collect="always"
       preserveAspectRatio="xMidYMid">
      <path
         transform="scale(0.5)"
         style="fill:context-stroke;fill-rule:evenodd;stroke:context-stroke;stroke-width:1pt"
         d="M 5.77,0 -2.88,5 V -5 Z"
         id="path135-2-6-0-8" />
    </marker>
    <marker
       style="overflow:visible"
       id="marker9466-2-0-7-9-5"
       refX="0"
       refY="0"
       orient="auto"
       inkscape:stockid="Dot"
       markerWidth="5.4000001"
       markerHeight="5.4000001"
       viewBox="0 0 5.4 5.4"
       inkscape:isstock="true"
       inkscape:collect="always"
       preserveAspectRatio="xMidYMid">
      <path
         transform="scale(0.45)"
         style="fill:context-fill;fill-rule:evenodd;stroke:context-stroke;stroke-width:2"
         d="M 5,0 C 5,2.76 2.76,5 0,5 -2.76,5 -5,2.76 -5,0 c 0,-2.76 2.3,-5 5,-5 2.76,0 5,2.24 5,5 z"
         id="path9464-9-9-9-4-0"
         sodipodi:nodetypes="sssss" />
    </marker>
    <marker
       style="overflow:visible"
       id="TriangleStart-1-3-2-7-3"
       refX="0"
       refY="0"
       orient="auto-start-reverse"
       inkscape:stockid="TriangleStart"
       markerWidth="5.3244081"
       markerHeight="6.155385"
       viewBox="0 0 5.3244081 6.1553851"
       inkscape:isstock="true"
       inkscape:collect="always"
       preserveAspectRatio="xMidYMid">
      <path
         transform="scale(0.5)"
         style="fill:context-stroke;fill-rule:evenodd;stroke:context-stroke;stroke-width:1pt"
         d="M 5.77,0 -2.88,5 V -5 Z"
         id="path135-2-6-0-8-6" />
    </marker>
    <marker
       style="overflow:visible"
       id="marker9466-2-0-7-9-0"
       refX="0"
       refY="0"
       orient="auto"
       inkscape:stockid="Dot"
       markerWidth="5.4000001"
       markerHeight="5.4000001"
       viewBox="0 0 5.4 5.4"
       inkscape:isstock="true"
       inkscape:collect="always"
       preserveAspectRatio="xMidYMid">
      <path
         transform="scale(0.45)"
         style="fill:context-fill;fill-rule:evenodd;stroke:context-stroke;stroke-width:2"
         d="M 5,0 C 5,2.76 2.76,5 0,5 -2.76,5 -5,2.76 -5,0 c 0,-2.76 2.3,-5 5,-5 2.76,0 5,2.24 5,5 z"
         id="path9464-9-9-9-4-6"
         sodipodi:nodetypes="sssss" />
    </marker>
    <marker
       style="overflow:visible"
       id="TriangleStart-1-3-2-7-32"
       refX="0"
       refY="0"
       orient="auto-start-reverse"
       inkscape:stockid="TriangleStart"
       markerWidth="5.3244081"
       markerHeight="6.155385"
       viewBox="0 0 5.3244081 6.1553851"
       inkscape:isstock="true"
       inkscape:collect="always"
       preserveAspectRatio="xMidYMid">
      <path
         transform="scale(0.5)"
         style="fill:context-stroke;fill-rule:evenodd;stroke:context-stroke;stroke-width:1pt"
         d="M 5.77,0 -2.88,5 V -5 Z"
         id="path135-2-6-0-8-0" />
    </marker>
    <marker
       style="overflow:visible"
       id="marker9466-2-0-7-9-1"
       refX="0"
       refY="0"
       orient="auto"
       inkscape:stockid="Dot"
       markerWidth="5.4000001"
       markerHeight="5.4000001"
       viewBox="0 0 5.4 5.4"
       inkscape:isstock="true"
       inkscape:collect="always"
       preserveAspectRatio="xMidYMid">
      <path
         transform="scale(0.45)"
         style="fill:context-fill;fill-rule:evenodd;stroke:context-stroke;stroke-width:2"
         d="M 5,0 C 5,2.76 2.76,5 0,5 -2.76,5 -5,2.76 -5,0 c 0,-2.76 2.3,-5 5,-5 2.76,0 5,2.24 5,5 z"
         id="path9464-9-9-9-4-5"
         sodipodi:nodetypes="sssss" />
    </marker>
    <marker
       style="overflow:visible"
       id="TriangleStart-1-3-2-7-5"
       refX="0"
       refY="0"
       orient="auto-start-reverse"
       inkscape:stockid="TriangleStart"
       markerWidth="5.3244081"
       markerHeight="6.155385"
       viewBox="0 0 5.3244081 6.1553851"
       inkscape:isstock="true"
       inkscape:collect="always"
       preserveAspectRatio="xMidYMid">
      <path
         transform="scale(0.5)"
         style="fill:context-stroke;fill-rule:evenodd;stroke:context-stroke;stroke-width:1pt"
         d="M 5.77,0 -2.88,5 V -5 Z"
         id="path135-2-6-0-8-4" />
    </marker>
    <clipPath
       clipPathUnits="userSpaceOnUse"
       id="clipPath9463">
      <path
         id="path9465"
         style="fill:#ff0000;fill-opacity:1;fill-rule:nonzero;stroke:none;stroke-width:0.264583"
         d="m 19.148185,187.31307 v 1.52187 H 156.6447 c -5.3e-4,-0.0186 -0.001,-0.0372 -0.002,-0.0558 0.0112,-0.48874 0.028,-0.97827 0.0636,-1.46606 z m 146.164725,0 c -0.0386,0.32612 -0.0751,0.65231 -0.11111,0.97875 0.0218,0.1772 0.0204,0.35852 -0.005,0.54312 h 54.51296 v -1.52187 z m -2.45618,1.51567 c -0.0216,0.002 -0.043,0.004 -0.0646,0.006 h 0.0641 c 1.8e-4,-0.003 2.5e-4,-0.003 5.3e-4,-0.006 z" />
    </clipPath>
    <clipPath
       clipPathUnits="userSpaceOnUse"
       id="clipPath9617">
      <path
         id="path9619"
         style="fill:#ff0000;fill-opacity:1;fill-rule:nonzero;stroke:none;stroke-width:0.264583"
         d="m 19.377112,201.48791 v 1.52239 H 156.77544 c 0.0193,-0.50758 0.0409,-1.01491 0.0631,-1.52239 z m 145.777148,0 c -0.0136,0.50746 -0.0274,1.01492 -0.0408,1.52239 h 54.82559 v -1.52239 z" />
    </clipPath>
    <clipPath
       clipPathUnits="userSpaceOnUse"
       id="clipPath9771">
      <path
         id="path9773"
         style="fill:#ff0000;fill-opacity:1;fill-rule:nonzero;stroke:none;stroke-width:0.264583"
         d="m 19.191593,216.32938 v 1.52239 H 156.54652 c 0.0182,-0.50747 0.0366,-1.01495 0.0558,-1.52239 z m 146.053097,0 c -0.004,0.27133 -0.0103,0.5427 -0.0186,0.81391 0.0154,0.23607 0.0272,0.47234 0.0413,0.70848 h 54.4866 v -1.52239 z" />
    </clipPath>
    <clipPath
       clipPathUnits="userSpaceOnUse"
       id="clipPath9925">
      <path
         id="path9927"
         style="fill:#ff0000;fill-opacity:1;fill-rule:nonzero;stroke:none;stroke-width:0.264583"
         d="m 19.420003,230.50474 v 1.52239 H 157.31288 c -0.0294,-0.50744 -0.0578,-1.01496 -0.0873,-1.52239 z m 145.997807,0 c -0.0152,0.50746 -0.0287,1.01497 -0.0439,1.52239 h 54.60803 v -1.52239 z m -5.78414,0.44391 c 0.005,0.19683 0.0104,0.39397 0.0155,0.59117 0.004,-0.18258 0.007,-0.36519 0.0108,-0.54777 -0.01,-0.0131 -0.0172,-0.0293 -0.0264,-0.0434 z" />
    </clipPath>
    <clipPath
       clipPathUnits="userSpaceOnUse"
       id="clipPath10079">
      <path
         id="path10081"
         style="fill:#ff0000;fill-opacity:1;fill-rule:nonzero;stroke:none;stroke-width:0.264583"
         d="M 18.824174,244.24913 V 245.771 H 157.46067 c -0.004,-0.34372 -0.0124,-0.6874 -0.0238,-1.03095 -0.0804,0.001 -0.16102,-5.3e-4 -0.24133,0.002 5.3e-4,-0.0462 0.003,-0.0923 0.004,-0.13849 -0.0466,-0.009 0.004,-0.098 0.005,-0.14677 7.9e-4,-0.0682 0.001,-0.1364 5.2e-4,-0.20463 -1e-5,-0.001 1e-5,-0.002 0,-0.003 z m 146.597766,0 c 0.003,0.0408 0.005,0.0739 0.008,0.12454 0.0409,0.5942 0.0491,0.77796 0.0842,1.39733 h 53.87165 v -1.52187 z" />
    </clipPath>
    <clipPath
       clipPathUnits="userSpaceOnUse"
       id="clipPath10533">
      <path
         id="path10535"
         style="fill:#ff0000;fill-opacity:1;fill-rule:nonzero;stroke:none;stroke-width:0.264583"
         d="m 18.867065,273.26596 v 1.52187 H 157.25965 c 0.001,-0.0297 0.004,-0.0592 0.005,-0.0889 0.006,-0.47773 0.004,-0.95528 0.008,-1.43299 z m 147.718635,0 c -0.005,0.26302 -0.008,0.52609 -0.014,0.7891 -0.007,0.24431 -0.015,0.4885 -0.0222,0.73277 h 52.87998 v -1.52187 z" />
    </clipPath>
    <clipPath
       clipPathUnits="userSpaceOnUse"
       id="clipPath10687">
      <path
         id="path10689"
         style="fill:#ff0000;fill-opacity:1;fill-rule:nonzero;stroke:none;stroke-width:0.264583"
         d="m 19.095992,287.4408 v 1.52239 H 157.78934 c -0.004,-0.0395 -0.009,-0.0788 -0.0124,-0.11834 -0.0448,-0.46808 -0.0916,-0.93607 -0.13849,-1.40405 z m 140.415198,0 c 0.004,0.0393 0.007,0.0786 0.0114,0.11783 0.002,-0.0393 0.003,-0.0786 0.005,-0.11783 z m 6.12935,0 c 0.001,0.0441 0.002,0.0882 0.004,0.1323 0.006,0.16611 0.006,0.2296 0.007,0.29765 0.0107,0.007 0.022,0.0135 0.0326,0.0207 -0.0283,0.12791 -0.031,0.0963 -0.0326,-0.0207 -0.11464,-0.0748 -0.24078,-0.14029 -0.37052,-0.20257 -0.056,0.0422 -0.11392,0.0825 -0.1726,0.12247 0.0615,0.39096 0.12169,0.78417 0.17829,1.17254 h 54.37084 v -1.52239 z" />
    </clipPath>
    <clipPath
       clipPathUnits="userSpaceOnUse"
       id="clipPath10987">
      <path
         id="path10989"
         style="fill:#ff0000;fill-opacity:1;fill-rule:nonzero;stroke:none;stroke-width:0.264583"
         d="m 19.052584,258.42397 v 1.52239 H 157.26947 c -5.3e-4,-0.042 5e-5,-0.0841 -5.3e-4,-0.12609 -0.007,-0.46553 -0.0216,-0.93091 -0.0356,-1.3963 z m 140.045196,0 c 7.9e-4,0.025 0.001,0.05 0.002,0.0749 0.004,-0.025 0.008,-0.0499 0.0119,-0.0749 z m 7.3179,0 c 0.10587,0.46541 0.21173,0.93086 0.31678,1.3963 0.009,0.042 0.0181,0.0841 0.0274,0.12609 h 52.85517 v -1.52239 z" />
    </clipPath>
  </defs>
  <sodipodi:namedview
     id="base"
     pagecolor="#ffffff"
     bordercolor="#666666"
     borderopacity="1.0"
     inkscape:pageopacity="0.0"
     inkscape:pageshadow="2"
     inkscape:zoom="1.4193906"
     inkscape:cx="474.14713"
     inkscape:cy="201.84718"
     inkscape:document-units="mm"
     inkscape:current-layer="layer1"
     showgrid="false"
     showborder="true"
     width="200mm"
     showguides="true"
     inkscape:guide-bbox="true"
     inkscape:window-width="1906"
     inkscape:window-height="1037"
     inkscape:window-x="5"
     inkscape:window-y="5"
     inkscape:window-maximized="1"
     inkscape:showpageshadow="0"
     inkscape:pagecheckerboard="0"
     inkscape:deskcolor="#d1d1d1">
    <inkscape:grid
       type="xygrid"
       id="grid815"
       units="mm"
       spacingx="10"
       spacingy="10"
       empspacing="4"
       dotted="false"
       originx="0"
       originy="0" />
  </sodipodi:namedview>
  <metadata
     id="metadata5">
    <rdf:RDF>
      <cc:Work
         rdf:about="">
        <dc:format>image/svg+xml</dc:format>
        <dc:type
           rdf:resource="http://purl.org/dc/dcmitype/StillImage" />
      </cc:Work>
    </rdf:RDF>
  </metadata>
  <g
     inkscape:label="Layer 1"
     inkscape:groupmode="layer"
     id="layer1"
     transform="translate(0,-177)">
    <rect
       style="fill:#666666;stroke:#4d4d4d;stroke-width:0.600001"
       id="rect787"
       width="199.96216"
       height="0.92231518"
       x="19.4482"
       y="187.61281"
       clip-path="url(#clipPath9463)" />
    <rect
       style="fill:#666666;stroke:#4d4d4d;stroke-width:0.600001"
       id="rect787-3"
       width="199.96216"
       height="0.92231518"
       x="19.676914"
       y="201.78792"
       clip-path="url(#clipPath9617)" />
    <rect
       style="fill:#666666;stroke:#4d4d4d;stroke-width:0.600001"
       id="rect787-6"
       width="199.96216"
       height="0.92231518"
       x="19.491421"
       y="216.62964"
       clip-path="url(#clipPath9771)" />
    <rect
       style="fill:#666666;stroke:#4d4d4d;stroke-width:0.600001"
       id="rect787-3-7"
       width="199.96216"
       height="0.92231518"
       x="19.720135"
       y="230.80475"
       clip-path="url(#clipPath9925)" />
    <rect
       style="fill:#666666;stroke:#4d4d4d;stroke-width:0.600001"
       id="rect787-5"
       width="199.96216"
       height="0.92231518"
       x="19.123989"
       y="244.54889"
       clip-path="url(#clipPath10079)" />
    <rect
       style="fill:#666666;stroke:#4d4d4d;stroke-width:0.600001"
       id="rect787-3-3"
       width="199.96216"
       height="0.92231518"
       x="19.352703"
       y="258.724"
       clip-path="url(#clipPath10987)" />
    <rect
       style="fill:#666666;stroke:#4d4d4d;stroke-width:0.600001"
       id="rect787-6-5"
       width="199.96216"
       height="0.92231518"
       x="19.16721"
       y="273.56573"
       clip-path="url(#clipPath10533)" />
    <rect
       style="fill:#666666;stroke:#4d4d4d;stroke-width:0.600001"
       id="rect787-3-7-6"
       width="199.96216"
       height="0.92231518"
       x="19.395924"
       y="287.74084"
       clip-path="url(#clipPath10687)" />
    <path
       style="fill:#666666;stroke:#4d4d4d;stroke-width:0.799645;stroke-dasharray:none;marker-start:url(#marker9466);marker-end:url(#TriangleStart)"
       d="m 27.585131,188.34165 0.247544,54.77819"
       id="path1037" />
    <path
       style="fill:#666666;stroke:#4d4d4d;stroke-width:0.799645;stroke-dasharray:none;marker-start:url(#marker9466-2);marker-end:url(#TriangleStart-1)"
       d="m 33.965478,202.16115 0.247544,54.77819"
       id="path1037-7" />
    <path
       style="fill:#666666;stroke:#4d4d4d;stroke-width:0.799645;stroke-dasharray:none;marker-start:url(#marker9466-2-0);marker-end:url(#TriangleStart-1-3)"
       d="m 40.834747,216.66554 0.247544,54.77819"
       id="path1037-7-0" />
    <path
       style="fill:#666666;stroke:#4d4d4d;stroke-width:0.799645;stroke-dasharray:none;marker-start:url(#marker9466-2-0-6);marker-end:url(#TriangleStart-1-3-6)"
       d="m 48.096167,231.66651 0.247544,54.77819"
       id="path1037-7-0-8" />
    <path
       style="fill:#666666;stroke:#4d4d4d;stroke-width:0.783269;stroke-dasharray:none;marker-start:url(#marker9466-2-0-7);marker-end:url(#TriangleStart-1-3-2)"
       d="m 91.238015,187.91399 0.480879,27.0552"
       id="path1037-7-0-2" />
    <path
       style="fill:#666666;stroke:#4d4d4d;stroke-width:0.783269;stroke-dasharray:none;marker-start:url(#marker9466-2-0-7-3);marker-end:url(#TriangleStart-1-3-2-5)"
       d="m 100.65638,202.28463 0.48088,27.0552"
       id="path1037-7-0-2-2" />
    <path
       style="fill:#666666;stroke:#4d4d4d;stroke-width:0.783269;stroke-dasharray:none;marker-start:url(#marker9466-2-0-7-2);marker-end:url(#TriangleStart-1-3-2-9)"
       d="m 91.779386,244.96049 0.480879,27.0552"
       id="path1037-7-0-2-3" />
    <path
       style="fill:#666666;stroke:#4d4d4d;stroke-width:0.783269;stroke-dasharray:none;marker-start:url(#marker9466-2-0-7-6);marker-end:url(#TriangleStart-1-3-2-2)"
       d="m 100.77854,259.14245 0.48088,27.0552"
       id="path1037-7-0-2-1" />
    <path
       style="fill:#666666;stroke:#4d4d4d;stroke-width:0.736889;stroke-dasharray:none;marker-start:url(#marker9466-2-0-7-9);marker-end:url(#TriangleStart-1-3-2-7)"
       d="m 140.02667,187.74458 0.42395,12.66236"
       id="path1037-7-0-2-4" />
    <path
       style="fill:#666666;stroke:#4d4d4d;stroke-width:0.736889;stroke-dasharray:none;marker-start:url(#marker9466-2-0-7-9-5);marker-end:url(#TriangleStart-1-3-2-7-3)"
       d="m 140.71738,216.39371 0.42395,12.66236"
       id="path1037-7-0-2-4-1" />
    <path
       style="fill:#666666;stroke:#4d4d4d;stroke-width:0.736889;stroke-dasharray:none;marker-start:url(#marker9466-2-0-7-9-0);marker-end:url(#TriangleStart-1-3-2-7-32)"
       d="m 141.73914,244.44993 0.42395,12.66236"
       id="path1037-7-0-2-4-6" />
    <path
       style="fill:#666666;stroke:#4d4d4d;stroke-width:0.736889;stroke-dasharray:none;marker-start:url(#marker9466-2-0-7-9-1);marker-end:url(#TriangleStart-1-3-2-7-5)"
       d="m 142.70952,273.65532 0.42395,12.66236"
       id="path1037-7-0-2-4-7" />
    <path
       style="fill:#a50000;fill-opacity:1;stroke:#4d4d4d;stroke-width:0.799999;stroke-dasharray:none"
       d="M 15.523017,183.95536 4.2063405,209.77823 15.638226,235.90619"
       id="path3938" />
    <path
       style="fill:#a50000;fill-opacity:1;stroke:#4d4d4d;stroke-width:0.799999;stroke-dasharray:none"
       d="M 15.150563,240.48601 3.8338867,266.30888 15.265772,292.43684"
       id="path3938-6" />
    <path
       style="fill:#a50000;fill-opacity:1;stroke:#4d4d4d;stroke-width:0.455257;stroke-dasharray:none"
       d="m 86.2453,181.76142 -7.240987,13.06953 7.314703,13.22392"
       id="path3938-5" />
    <path
       style="fill:#a50000;fill-opacity:1;stroke:#4d4d4d;stroke-width:0.455257;stroke-dasharray:none"
       d="m 86.327278,209.8276 -7.240987,13.06953 7.314703,13.22392"
       id="path3938-5-6" />
    <path
       style="fill:#a50000;fill-opacity:1;stroke:#4d4d4d;stroke-width:0.455257;stroke-dasharray:none"
       d="m 86.349112,237.97487 -7.240987,13.06953 7.314703,13.22392"
       id="path3938-5-9"
       inkscape:transform-center-x="-1.2015092"
       inkscape:transform-center-y="-2.1026116" />
    <path
       style="fill:#a50000;fill-opacity:1;stroke:#4d4d4d;stroke-width:0.455257;stroke-dasharray:none"
       d="m 86.412187,266.23071 -7.240987,13.06953 7.314703,13.22392"
       id="path3938-5-3" />
    <path
       style="fill:#a50000;fill-opacity:1;stroke:#4d4d4d;stroke-width:0.1962;stroke-dasharray:none"
       d="m 134.59672,183.5898 -3.85074,4.56454 3.88994,4.61846"
       id="path3938-5-7" />
    <path
       style="fill:#a50000;fill-opacity:1;stroke:#4d4d4d;stroke-width:0.1962;stroke-dasharray:none"
       d="m 135.2129,211.92666 -3.85074,4.56454 3.88994,4.61846"
       id="path3938-5-7-5" />
    <path
       style="fill:#a50000;fill-opacity:1;stroke:#4d4d4d;stroke-width:0.1962;stroke-dasharray:none"
       d="m 136.14493,227.33829 -3.85074,4.56454 3.88994,4.61846"
       id="path3938-5-7-2" />
    <path
       style="fill:#a50000;fill-opacity:1;stroke:#4d4d4d;stroke-width:0.1962;stroke-dasharray:none"
       d="m 135.58571,239.8876 -3.85074,4.56454 3.88994,4.61846"
       id="path3938-5-7-54" />
    <path
       style="fill:#a50000;fill-opacity:1;stroke:#4d4d4d;stroke-width:0.1962;stroke-dasharray:none"
       d="m 135.77212,255.11282 -3.85074,4.56454 3.88994,4.61846"
       id="path3938-5-7-7" />
    <path
       style="fill:#a50000;fill-opacity:1;stroke:#4d4d4d;stroke-width:0.1962;stroke-dasharray:none"
       d="m 136.33134,269.30975 -3.85074,4.56454 3.88994,4.61846"
       id="path3938-5-7-44" />
    <path
       style="fill:#a50000;fill-opacity:1;stroke:#4d4d4d;stroke-width:0.1962;stroke-dasharray:none"
       d="m 136.51774,283.50668 -3.85074,4.56453 3.88994,4.61847"
       id="path3938-5-7-3" />
    <path
       style="fill:#a50000;fill-opacity:1;stroke:#4d4d4d;stroke-width:0.1962;stroke-dasharray:none"
       d="m 135.14046,197.33637 -3.85074,4.56454 3.88994,4.61846"
       id="path3938-5-7-4" />
    <text
       xml:space="preserve"
       transform="matrix(0.26458333,0,0,0.26458333,-3.2906386,175.25857)"
       id="text4188"
       style="font-size:29.3333px;font-family:'Libertinus Math';-inkscape-font-specification:'Libertinus Math';white-space:pre;shape-inside:url(#rect4190);fill:#a50000;fill-opacity:1;stroke:#4d4d4d;stroke-width:3.02362;stroke-dasharray:none"><tspan
         x="109.58008"
         y="33.115457"
         id="tspan11304">0</tspan></text>
    <text
       xml:space="preserve"
       transform="matrix(0.26458333,0,0,0.26458333,-4.0962394,175.60741)"
       id="text4338"
       style="font-size:29.3333px;font-family:'Libertinus Math';-inkscape-font-specification:'Libertinus Math';white-space:pre;shape-inside:url(#rect4340);fill:#a50000;fill-opacity:1;stroke:#4d4d4d;stroke-width:3.02362;stroke-dasharray:none"><tspan
         x="136.30664"
         y="85.052957"
         id="tspan11306">0</tspan></text>
    <text
       xml:space="preserve"
       transform="matrix(0.26458333,0,0,0.26458333,0,177)"
       id="text4488"
       style="font-size:29.3333px;font-family:'Libertinus Math';-inkscape-font-specification:'Libertinus Math';white-space:pre;shape-inside:url(#rect4490);fill:#a50000;fill-opacity:1;stroke:#4d4d4d;stroke-width:3.02362;stroke-dasharray:none" />
    <text
       xml:space="preserve"
       transform="matrix(0.26458333,0,0,0.26458333,0,177)"
       id="text4638"
       style="font-size:29.3333px;font-family:'Libertinus Math';-inkscape-font-specification:'Libertinus Math';white-space:pre;shape-inside:url(#rect4640);fill:#a50000;fill-opacity:1;stroke:#4d4d4d;stroke-width:3.02362;stroke-dasharray:none" />
    <text
       xml:space="preserve"
       transform="matrix(0.26458333,0,0,0.26458333,-6.1752599,175.82423)"
       id="text4788"
       style="font-size:29.3333px;font-family:'Libertinus Math';-inkscape-font-specification:'Libertinus Math';white-space:pre;shape-inside:url(#rect4790);fill:#a50000;fill-opacity:1;stroke:#4d4d4d;stroke-width:3.02362;stroke-dasharray:none"><tspan
         x="169.26367"
         y="140.08811"
         id="tspan11308">0</tspan></text>
    <text
       xml:space="preserve"
       transform="matrix(0.26458333,0,0,0.26458333,0,177)"
       id="text4988"
       style="font-size:29.3333px;font-family:'Libertinus Math';-inkscape-font-specification:'Libertinus Math';white-space:pre;shape-inside:url(#rect4990);fill:#a50000;fill-opacity:1;stroke:#4d4d4d;stroke-width:3.02362;stroke-dasharray:none" />
    <text
       xml:space="preserve"
       transform="matrix(0.26458333,0,0,0.26458333,-2.6724681,177.18481)"
       id="text5138"
       style="font-size:29.3333px;font-family:'Libertinus Math';-inkscape-font-specification:'Libertinus Math';white-space:pre;shape-inside:url(#rect5140);fill:#a50000;fill-opacity:1;stroke:#4d4d4d;stroke-width:3.02362;stroke-dasharray:none"><tspan
         x="186.44922"
         y="186.88499"
         id="tspan11310">1</tspan></text>
    <text
       xml:space="preserve"
       transform="matrix(0.26458333,0,0,0.26458333,1.4312917,174.50382)"
       id="text5288"
       style="font-size:29.3333px;font-family:'Libertinus Math';-inkscape-font-specification:'Libertinus Math';white-space:pre;shape-inside:url(#rect5290);fill:#a50000;fill-opacity:1;stroke:#4d4d4d;stroke-width:3.02362;stroke-dasharray:none"><tspan
         x="91.189453"
         y="295.52952"
         id="tspan11312">1</tspan></text>
    <text
       xml:space="preserve"
       transform="matrix(0.26458333,0,0,0.26458333,0,177)"
       id="text5438"
       style="font-size:29.3333px;font-family:'Libertinus Math';-inkscape-font-specification:'Libertinus Math';white-space:pre;shape-inside:url(#rect5440);fill:#a50000;fill-opacity:1;stroke:#4d4d4d;stroke-width:3.02362;stroke-dasharray:none" />
    <text
       xml:space="preserve"
       style="font-size:7.7611px;font-family:'Libertinus Math';-inkscape-font-specification:'Libertinus Math';fill:#a50000;fill-opacity:1;stroke:#4d4d4d;stroke-width:0.799999;stroke-dasharray:none"
       x="32.42424"
       y="265.63181"
       id="text5590"><tspan
         sodipodi:role="line"
         id="tspan5588"
         style="stroke-width:0.8"
         x="32.42424"
         y="265.63181">1</tspan></text>
    <text
       xml:space="preserve"
       style="font-size:7.7611px;font-family:'Libertinus Math';-inkscape-font-specification:'Libertinus Math';fill:#a50000;fill-opacity:1;stroke:#4d4d4d;stroke-width:0.799999;stroke-dasharray:none"
       x="38.78154"
       y="281.01279"
       id="text5594"><tspan
         sodipodi:role="line"
         id="tspan5592"
         style="stroke-width:0.8"
         x="38.78154"
         y="281.01279">0</tspan></text>
    <text
       xml:space="preserve"
       style="font-size:7.7611px;font-family:'Libertinus Math';-inkscape-font-specification:'Libertinus Math';fill:#a50000;fill-opacity:1;stroke:#4d4d4d;stroke-width:0.799999;stroke-dasharray:none"
       x="46.336212"
       y="294.58731"
       id="text5598"><tspan
         sodipodi:role="line"
         id="tspan5596"
         style="stroke-width:0.8"
         x="46.336212"
         y="294.58731">0</tspan></text>
    <text
       xml:space="preserve"
       style="font-size:7.7611px;font-family:'Libertinus Math';-inkscape-font-specification:'Libertinus Math';fill:#a50000;fill-opacity:1;stroke:#4d4d4d;stroke-width:0.799999;stroke-dasharray:none"
       x="88.607323"
       y="183.88705"
       id="text5707"><tspan
         sodipodi:role="line"
         id="tspan5705"
         style="stroke-width:0.8"
         x="88.607323"
         y="183.88705">0</tspan></text>
    <text
       xml:space="preserve"
       style="font-size:7.7611px;font-family:'Libertinus Math';-inkscape-font-specification:'Libertinus Math';fill:#a50000;fill-opacity:1;stroke:#4d4d4d;stroke-width:0.799999;stroke-dasharray:none"
       x="99.065834"
       y="198.41028"
       id="text5711"><tspan
         sodipodi:role="line"
         id="tspan5709"
         style="stroke-width:0.8"
         x="99.065834"
         y="198.41028">0</tspan></text>
    <text
       xml:space="preserve"
       style="font-size:7.7611px;font-family:'Libertinus Math';-inkscape-font-specification:'Libertinus Math';fill:#a50000;fill-opacity:1;stroke:#4d4d4d;stroke-width:0.799999;stroke-dasharray:none"
       x="89.576553"
       y="223.81369"
       id="text5715"><tspan
         sodipodi:role="line"
         id="tspan5713"
         style="stroke-width:0.8"
         x="89.576553"
         y="223.81369">0</tspan></text>
    <text
       xml:space="preserve"
       style="font-size:7.7611px;font-family:'Libertinus Math';-inkscape-font-specification:'Libertinus Math';fill:#a50000;fill-opacity:1;stroke:#4d4d4d;stroke-width:0.799999;stroke-dasharray:none"
       x="99.572533"
       y="238.53763"
       id="text5719"><tspan
         sodipodi:role="line"
         id="tspan5717"
         style="stroke-width:0.8"
         x="99.572533"
         y="238.53763">0</tspan></text>
    <text
       xml:space="preserve"
       style="font-size:7.7611px;font-family:'Libertinus Math';-inkscape-font-specification:'Libertinus Math';fill:#a50000;fill-opacity:1;stroke:#4d4d4d;stroke-width:0.799999;stroke-dasharray:none"
       x="89.968307"
       y="241.27277"
       id="text5723"><tspan
         sodipodi:role="line"
         id="tspan5721"
         style="stroke-width:0.8"
         x="89.968307"
         y="241.27277">1</tspan></text>
    <text
       xml:space="preserve"
       style="font-size:7.7611px;font-family:'Libertinus Math';-inkscape-font-specification:'Libertinus Math';fill:#a50000;fill-opacity:1;stroke:#4d4d4d;stroke-width:0.799999;stroke-dasharray:none"
       x="98.748161"
       y="254.96338"
       id="text5727"><tspan
         sodipodi:role="line"
         id="tspan5725"
         style="stroke-width:0.8"
         x="98.748161"
         y="254.96338">1</tspan></text>
    <text
       xml:space="preserve"
       style="font-size:7.7611px;font-family:'Libertinus Math';-inkscape-font-specification:'Libertinus Math';fill:#a50000;fill-opacity:1;stroke:#4d4d4d;stroke-width:0.799999;stroke-dasharray:none"
       x="90.356461"
       y="281.18344"
       id="text5731"><tspan
         sodipodi:role="line"
         id="tspan5729"
         style="stroke-width:0.8"
         x="90.356461"
         y="281.18344">0</tspan></text>
    <text
       xml:space="preserve"
       style="font-size:7.7611px;font-family:'Libertinus Math';-inkscape-font-specification:'Libertinus Math';fill:#a50000;fill-opacity:1;stroke:#4d4d4d;stroke-width:0.799999;stroke-dasharray:none"
       x="99.763214"
       y="295.13187"
       id="text5735"><tspan
         sodipodi:role="line"
         id="tspan5733"
         style="stroke-width:0.8"
         x="99.763214"
         y="295.13187">1</tspan></text>
    <text
       xml:space="preserve"
       style="font-size:7.7611px;font-family:'Libertinus Math';-inkscape-font-specification:'Libertinus Math';fill:#a50000;fill-opacity:1;stroke:#4d4d4d;stroke-width:0.799999;stroke-dasharray:none"
       x="141.77446"
       y="185.08611"
       id="text5747"><tspan
         sodipodi:role="line"
         id="tspan5745"
         style="stroke-width:0.8"
         x="141.77446"
         y="185.08611">0</tspan></text>
    <text
       xml:space="preserve"
       style="font-size:7.7611px;font-family:'Libertinus Math';-inkscape-font-specification:'Libertinus Math';fill:#a50000;fill-opacity:1;stroke:#4d4d4d;stroke-width:0.799999;stroke-dasharray:none"
       x="138.25317"
       y="208.63866"
       id="text5751"><tspan
         sodipodi:role="line"
         id="tspan5749"
         style="stroke-width:0.8"
         x="138.25317"
         y="208.63866">0</tspan></text>
    <text
       xml:space="preserve"
       style="font-size:7.7611px;font-family:'Libertinus Math';-inkscape-font-specification:'Libertinus Math';fill:#a50000;fill-opacity:1;stroke:#4d4d4d;stroke-width:0.799999;stroke-dasharray:none"
       x="142.96471"
       y="215.17027"
       id="text5755"><tspan
         sodipodi:role="line"
         id="tspan5753"
         style="stroke-width:0.8"
         x="142.96471"
         y="215.17027">0</tspan></text>
    <text
       xml:space="preserve"
       style="font-size:7.7611px;font-family:'Libertinus Math';-inkscape-font-specification:'Libertinus Math';fill:#a50000;fill-opacity:1;stroke:#4d4d4d;stroke-width:0.799999;stroke-dasharray:none"
       x="139.22351"
       y="237.44209"
       id="text5759"><tspan
         sodipodi:role="line"
         id="tspan5757"
         style="stroke-width:0.8"
         x="139.22351"
         y="237.44209">0</tspan></text>
    <text
       xml:space="preserve"
       style="font-size:7.7611px;font-family:'Libertinus Math';-inkscape-font-specification:'Libertinus Math';fill:#a50000;fill-opacity:1;stroke:#4d4d4d;stroke-width:0.799999;stroke-dasharray:none"
       x="143.3398"
       y="242.62994"
       id="text5763"><tspan
         sodipodi:role="line"
         id="tspan5761"
         style="stroke-width:0.8"
         x="143.3398"
         y="242.62994">0</tspan></text>
    <text
       xml:space="preserve"
       style="font-size:7.7611px;font-family:'Libertinus Math';-inkscape-font-specification:'Libertinus Math';fill:#a50000;fill-opacity:1;stroke:#4d4d4d;stroke-width:0.799999;stroke-dasharray:none"
       x="140.37694"
       y="265.47159"
       id="text5767"><tspan
         sodipodi:role="line"
         id="tspan5765"
         style="stroke-width:0.8"
         x="140.37694"
         y="265.47159">1</tspan></text>
    <text
       xml:space="preserve"
       style="font-size:7.7611px;font-family:'Libertinus Math';-inkscape-font-specification:'Libertinus Math';fill:#a50000;fill-opacity:1;stroke:#4d4d4d;stroke-width:0.799999;stroke-dasharray:none"
       x="145.01068"
       y="271.97781"
       id="text5771"><tspan
         sodipodi:role="line"
         id="tspan5769"
         style="stroke-width:0.8"
         x="145.01068"
         y="271.97781">1</tspan></text>
    <text
       xml:space="preserve"
       style="font-size:7.7611px;font-family:'Libertinus Math';-inkscape-font-specification:'Libertinus Math';fill:#a50000;fill-opacity:1;stroke:#4d4d4d;stroke-width:0.799999;stroke-dasharray:none"
       x="141.51173"
       y="295.26288"
       id="text5775"><tspan
         sodipodi:role="line"
         id="tspan5773"
         style="stroke-width:0.8"
         x="141.51173"
         y="295.26288">1</tspan></text>
  </g>
</svg>
