<?xml version="1.0" encoding="UTF-8" standalone="no"?>
<!-- Created with Inkscape (http://www.inkscape.org/) -->

<svg
   width="240mm"
   height="120mm"
   viewBox="0 0 240 120"
   version="1.1"
   id="svg8"
   inkscape:version="1.2.2 (b0a8486541, 2022-12-01)"
   sodipodi:docname="rd.svg"
   xmlns:inkscape="http://www.inkscape.org/namespaces/inkscape"
   xmlns:sodipodi="http://sodipodi.sourceforge.net/DTD/sodipodi-0.dtd"
   xmlns="http://www.w3.org/2000/svg"
   xmlns:svg="http://www.w3.org/2000/svg"
   xmlns:rdf="http://www.w3.org/1999/02/22-rdf-syntax-ns#"
   xmlns:cc="http://creativecommons.org/ns#"
   xmlns:dc="http://purl.org/dc/elements/1.1/">
  <defs
     id="defs2" />
  <sodipodi:namedview
     id="base"
     pagecolor="#ffffff"
     bordercolor="#666666"
     borderopacity="1.0"
     inkscape:pageopacity="0.0"
     inkscape:pageshadow="2"
     inkscape:zoom="0.99437388"
     inkscape:cx="284.09837"
     inkscape:cy="183.02975"
     inkscape:document-units="mm"
     inkscape:current-layer="layer1"
     showgrid="false"
     showborder="true"
     width="200mm"
     showguides="true"
     inkscape:guide-bbox="true"
     inkscape:window-width="986"
     inkscape:window-height="494"
     inkscape:window-x="5"
     inkscape:window-y="548"
     inkscape:window-maximized="1"
     inkscape:showpageshadow="0"
     inkscape:pagecheckerboard="0"
     inkscape:deskcolor="#d1d1d1">
    <inkscape:grid
       type="xygrid"
       id="grid815"
       units="mm"
       spacingx="10"
       spacingy="10"
       empspacing="4"
       dotted="false" />
  </sodipodi:namedview>
  <metadata
     id="metadata5">
    <rdf:RDF>
      <cc:Work
         rdf:about="">
        <dc:format>image/svg+xml</dc:format>
        <dc:type
           rdf:resource="http://purl.org/dc/dcmitype/StillImage" />
        <dc:title />
      </cc:Work>
    </rdf:RDF>
  </metadata>
  <g
     inkscape:label="Layer 1"
     inkscape:groupmode="layer"
     id="layer1"
     transform="translate(0,-177)">
    <path
       style="fill:#000000;stroke-width:0.264999"
       d="m 54.735658,234.2341 c 3.509595,3.84453 8.145872,6.55884 13.446429,6.8315 5.223857,0.26871 7.724854,-0.76951 12.485386,-3.47352 3.274126,-1.85972 6.525455,-6.382 7.703409,-10.02987 0.303758,-0.94067 -0.235029,-2.64136 -0.612711,-3.34312 -3.37535,-6.27164 -11.097567,-8.69639 -17.76885,-8.13193 -1.207913,0.1022 -3.43466,0.46359 -3.851376,1.89744 -0.18728,0.6444 0.313865,1.62376 0.962845,1.80711 6.33276,1.78909 12.808106,2.39292 18.294033,-1.98781 0.762788,-0.60912 5.564618,-5.25322 4.726686,-6.91987 -1.249696,-2.48566 -5.335646,-2.15932 -7.515844,-1.78424 -0.373941,0.0643 -2.289723,0.21057 -2.289723,0.65364"
       id="path121" />
  </g>
</svg>
